<svg width="140" height="130" viewBox="0 0 140 130" fill="none" xmlns="http://www.w3.org/2000/svg">
<path d="M137.694 105.725C136.571 103.938 135.104 102.393 133.377 101.18C131.651 99.9671 129.7 99.1105 127.638 98.66C119.752 96.8257 112.912 91.9442 108.613 85.0822C104.314 78.22 102.907 69.9354 104.697 62.0387C105.386 58.9866 105.157 55.7991 104.04 52.8764C102.923 49.9538 100.967 47.4264 98.4182 45.6118C95.8692 43.7972 92.841 42.7762 89.7136 42.6769C86.5864 42.5777 83.4996 43.4046 80.8408 45.054C78.182 46.7035 76.0699 49.1016 74.7696 51.9475C73.4694 54.7935 73.039 57.96 73.5326 61.0496C74.0261 64.1393 75.4217 67.0143 77.5439 69.3135C79.6659 71.6126 82.4202 73.2335 85.4604 73.9724C89.3937 74.8595 93.1132 76.5143 96.4056 78.8418C99.6981 81.1691 102.499 84.1237 104.647 87.5355C106.796 90.9475 108.25 94.75 108.926 98.7249C109.602 102.7 109.487 106.769 108.587 110.7C108.054 113.233 108.149 115.859 108.864 118.347C109.578 120.836 110.891 123.112 112.687 124.977C114.482 126.842 116.707 128.24 119.166 129.049C121.626 129.857 124.246 130.051 126.798 129.615C129.35 129.179 131.757 128.125 133.809 126.546C135.86 124.967 137.494 122.91 138.569 120.554C139.643 118.198 140.125 115.615 139.972 113.031C139.82 110.446 139.038 107.938 137.694 105.725Z" fill="#1E88E5"/>
<path d="M40.0804 88.1021C42.8578 89.6177 46.0244 90.269 49.1744 89.9723C52.3245 89.6756 55.3139 88.4445 57.7594 86.437C60.2049 84.4293 61.9948 81.7369 62.8993 78.7052C63.804 75.6732 63.782 72.4403 62.8363 69.421C61.6377 65.5709 61.2107 61.5223 61.5799 57.507C61.9491 53.4916 63.107 49.5886 64.9877 46.0219C66.8682 42.4551 69.4343 39.2944 72.5387 36.7212C75.6432 34.1479 79.2249 32.2129 83.0787 31.0267C86.0676 30.0905 88.7127 28.2911 90.6813 25.8551C92.6498 23.4191 93.8539 20.4552 94.1419 17.3364C94.43 14.2176 93.7892 11.0832 92.3001 8.32793C90.8109 5.57248 88.54 3.31905 85.7733 1.85131C83.0064 0.383565 79.8673 -0.233162 76.751 0.0790909C73.6345 0.391149 70.68 1.61799 68.2591 3.60545C65.8383 5.5927 64.0595 8.25171 63.1462 11.2477C62.2332 14.2436 62.2266 17.4428 63.1274 20.4424C65.492 28.1865 64.6923 36.5522 60.9037 43.7082C57.1149 50.8641 50.6456 56.2276 42.9116 58.6249C39.8585 59.5104 37.1414 61.2917 35.1121 63.7388C33.0829 66.1859 31.8348 69.1857 31.5298 72.3499C31.2249 75.5142 31.8768 78.6972 33.4013 81.4866C34.9259 84.2763 37.2526 86.5439 40.0804 87.9961V88.1021Z" fill="#1E88E5"/>
<path d="M80.9355 85.5086C78.8246 85.5827 76.7498 86.0773 74.8324 86.9633C72.9149 87.8493 71.1936 89.1088 69.7691 90.6686C64.2424 96.5798 56.6 100.062 48.5129 100.355C40.4257 100.648 32.5515 97.7261 26.6121 92.2296C25.0775 90.7897 23.272 89.6692 21.3005 88.9333C19.3292 88.1974 17.2311 87.8608 15.1283 87.943C12.5401 88.0651 10.0209 88.819 7.79097 90.1385C5.56087 91.4581 3.68794 93.3035 2.3353 95.5133C0.98246 97.7234 0.191329 100.231 0.0305365 102.817C-0.130062 105.403 0.34454 107.989 1.41332 110.35C2.48209 112.71 4.11218 114.773 6.16166 116.359C8.21113 117.945 10.6174 119.004 13.1706 119.446C15.7239 119.887 18.3465 119.697 20.8093 118.892C23.2724 118.087 25.5007 116.691 27.3 114.827C30.0371 111.863 33.3319 109.469 36.9957 107.781C40.6598 106.093 44.6207 105.144 48.6517 104.989C52.6828 104.835 56.705 105.476 60.4876 106.878C64.2702 108.281 67.739 110.415 70.6953 113.16C72.62 114.899 74.9414 116.14 77.4566 116.774C79.9719 117.409 82.6041 117.417 85.1233 116.799C87.6425 116.18 89.9716 114.954 91.9073 113.228C93.8431 111.501 95.3262 109.326 96.2271 106.893C97.1279 104.461 97.419 101.845 97.075 99.2738C96.7309 96.7028 95.7621 94.2554 94.2531 92.1452C92.7443 90.0353 90.7417 88.3272 88.42 87.1702C86.0984 86.0133 83.5286 85.4427 80.9355 85.5086Z" fill="#1E88E5"/>
</svg>
